{"buffers":[{"uri":"corps.bin","byteLength":2816712}],"asset":{"version":"2.0","generator":"gltfpack 0.16"},"bufferViews":[{"buffer":0,"byteOffset":0,"byteLength":799068,"byteStride":12,"target":34962},{"buffer":0,"byteOffset":799068,"byteLength":799068,"byteStride":12,"target":34962},{"buffer":0,"byteOffset":1598136,"byteLength":1218576,"target":34963}],"accessors":[{"bufferView":0,"byteOffset":0,"componentType":5126,"count":66589,"type":"VEC3","min":[-7.6035099,0,-7.60121012],"max":[7.60380983,7,7.60129976]},{"bufferView":1,"byteOffset":0,"componentType":5126,"count":66589,"type":"VEC3"},{"bufferView":2,"byteOffset":0,"componentType":5125,"count":304644,"type":"SCALAR"}],"materials":[{"pbrMetallicRoughness":{"baseColorFactor":[0.627451003,0.627451003,0.627451003,1],"metallicFactor":0},"doubleSided":true}],"meshes":[{"primitives":[{"attributes":{"POSITION":0,"NORMAL":1},"mode":4,"indices":2,"material":0}]}],"nodes":[{"mesh":0},{"children":[0]}],"scenes":[{"nodes":[1]}]}