{"buffers":[{"uri":"fan.bin","byteLength":287340}],"asset":{"version":"2.0","generator":"gltfpack 0.16"},"bufferViews":[{"buffer":0,"byteOffset":0,"byteLength":106740,"byteStride":12,"target":34962},{"buffer":0,"byteOffset":106740,"byteLength":106740,"byteStride":12,"target":34962},{"buffer":0,"byteOffset":213480,"byteLength":73860,"target":34963}],"accessors":[{"bufferView":0,"byteOffset":0,"componentType":5126,"count":4177,"type":"VEC3","min":[-3.5,31.1793385,-3.5],"max":[3.5,32.7793388,3.5]},{"bufferView":1,"byteOffset":0,"componentType":5126,"count":4177,"type":"VEC3"},{"bufferView":2,"byteOffset":0,"componentType":5123,"count":16836,"type":"SCALAR"},{"bufferView":0,"byteOffset":50124,"componentType":5126,"count":4718,"type":"VEC3","min":[-2.9007318,31.3793373,-2.9007318],"max":[2.9007318,32.5793381,2.9007318]},{"bufferView":1,"byteOffset":50124,"componentType":5126,"count":4718,"type":"VEC3"},{"bufferView":2,"byteOffset":33672,"componentType":5123,"count":20094,"type":"SCALAR"}],"materials":[{"pbrMetallicRoughness":{"baseColorFactor":[0.627451003,0.627451003,0.627451003,1],"metallicFactor":0},"doubleSided":true}],"meshes":[{"primitives":[{"attributes":{"POSITION":0,"NORMAL":1},"mode":4,"indices":2,"material":0}]},{"primitives":[{"attributes":{"POSITION":3,"NORMAL":4},"mode":4,"indices":5,"material":0}]}],"nodes":[{"mesh":0},{"mesh":1},{"name":"CPU Fan","children":[0]},{"name":"CPU Proppler","children":[1]}],"scenes":[{"nodes":[2,3]}]}