{"buffers":[{"uri":"foot.bin","byteLength":3358176}],"asset":{"version":"2.0","generator":"gltfpack 0.16"},"bufferViews":[{"buffer":0,"byteOffset":0,"byteLength":944580,"byteStride":12,"target":34962},{"buffer":0,"byteOffset":944580,"byteLength":944580,"byteStride":12,"target":34962},{"buffer":0,"byteOffset":1889160,"byteLength":1469016,"target":34963}],"accessors":[{"bufferView":0,"byteOffset":0,"componentType":5126,"count":78715,"type":"VEC3","min":[-7.60064983,-3.20000005,-7.60223007],"max":[7.60141993,2.66453526e-15,7.59998989]},{"bufferView":1,"byteOffset":0,"componentType":5126,"count":78715,"type":"VEC3"},{"bufferView":2,"byteOffset":0,"componentType":5125,"count":367254,"type":"SCALAR"}],"materials":[{"pbrMetallicRoughness":{"baseColorFactor":[0.627451003,0.627451003,0.627451003,1],"metallicFactor":0},"doubleSided":true}],"meshes":[{"primitives":[{"attributes":{"POSITION":0,"NORMAL":1},"mode":4,"indices":2,"material":0}]}],"nodes":[{"mesh":0},{"name":"support v4","children":[0]}],"scenes":[{"nodes":[1]}]}