{"buffers":[{"uri":"grandeCloche.bin","byteLength":45408}],"asset":{"version":"2.0","generator":"gltfpack 0.16"},"bufferViews":[{"buffer":0,"byteOffset":0,"byteLength":15516,"byteStride":12,"target":34962},{"buffer":0,"byteOffset":15516,"byteLength":15516,"byteStride":12,"target":34962},{"buffer":0,"byteOffset":31032,"byteLength":14376,"target":34963}],"accessors":[{"bufferView":0,"byteOffset":0,"componentType":5126,"count":1293,"type":"VEC3","min":[-5.00890017,8.44999981,-4.98883009],"max":[4.98549986,26.4500008,5]},{"bufferView":1,"byteOffset":0,"componentType":5126,"count":1293,"type":"VEC3"},{"bufferView":2,"byteOffset":0,"componentType":5123,"count":7188,"type":"SCALAR"}],"materials":[{"pbrMetallicRoughness":{"baseColorFactor":[0.964705884,0.964705884,0.952941179,1],"metallicFactor":0},"doubleSided":true}],"meshes":[{"primitives":[{"attributes":{"POSITION":0,"NORMAL":1},"mode":4,"indices":2,"material":0}]}],"nodes":[{"mesh":0},{"name":"grande cloche v2","children":[0]}],"scenes":[{"nodes":[1]}]}