{"buffers":[{"uri":"ice.bin","byteLength":23628}],"asset":{"version":"2.0","generator":"gltfpack 0.16"},"bufferViews":[{"buffer":0,"byteOffset":0,"byteLength":8076,"byteStride":12,"target":34962},{"buffer":0,"byteOffset":8076,"byteLength":8076,"byteStride":12,"target":34962},{"buffer":0,"byteOffset":16152,"byteLength":7476,"target":34963}],"accessors":[{"bufferView":0,"byteOffset":0,"componentType":5126,"count":673,"type":"VEC3","min":[-4.13868999,8.44999981,-4.09998989],"max":[4.06128979,23.0499992,4.0999999]},{"bufferView":1,"byteOffset":0,"componentType":5126,"count":673,"type":"VEC3"},{"bufferView":2,"byteOffset":0,"componentType":5123,"count":3738,"type":"SCALAR"}],"materials":[{"pbrMetallicRoughness":{"baseColorFactor":[0.145098045,0.670588255,0.709803939,1],"metallicFactor":0},"doubleSided":true}],"meshes":[{"primitives":[{"attributes":{"POSITION":0,"NORMAL":1},"mode":4,"indices":2,"material":0}]}],"nodes":[{"mesh":0},{"name":"glace v2","children":[0]}],"scenes":[{"nodes":[1]}]}