{"buffers":[{"uri":"miniFan.bin","byteLength":199284}],"asset":{"version":"2.0","generator":"gltfpack 0.16"},"bufferViews":[{"buffer":0,"byteOffset":0,"byteLength":73152,"byteStride":12,"target":34962},{"buffer":0,"byteOffset":73152,"byteLength":73152,"byteStride":12,"target":34962},{"buffer":0,"byteOffset":146304,"byteLength":52980,"target":34963}],"accessors":[{"bufferView":0,"byteOffset":0,"componentType":5126,"count":890,"type":"VEC3","min":[-0.218488693,-2.66351271,4.17578173],"max":[1.15220129,-1.54748261,5.00787163]},{"bufferView":1,"byteOffset":0,"componentType":5126,"count":890,"type":"VEC3"},{"bufferView":2,"byteOffset":0,"componentType":5123,"count":5145,"type":"SCALAR"},{"bufferView":0,"byteOffset":10680,"componentType":5126,"count":852,"type":"VEC3","min":[-0.283888698,-2.6636126,4.07517147],"max":[1.08685136,-1.54748261,4.90725183]},{"bufferView":1,"byteOffset":10680,"componentType":5126,"count":852,"type":"VEC3"},{"bufferView":2,"byteOffset":10290,"componentType":5123,"count":4935,"type":"SCALAR"},{"bufferView":0,"byteOffset":20904,"componentType":5126,"count":2008,"type":"VEC3","min":[-2.68076873,-2.6561625,3.31579161],"max":[1.31923127,-1.54748261,7.31579161]},{"bufferView":1,"byteOffset":20904,"componentType":5126,"count":2008,"type":"VEC3"},{"bufferView":2,"byteOffset":20160,"componentType":5123,"count":5790,"type":"SCALAR"},{"bufferView":0,"byteOffset":45000,"componentType":5126,"count":2346,"type":"VEC3","min":[-2.47249794,-2.25616264,3.51575613],"max":[1.11909509,-1.55617261,7.1156168]},{"bufferView":1,"byteOffset":45000,"componentType":5126,"count":2346,"type":"VEC3"},{"bufferView":2,"byteOffset":31740,"componentType":5123,"count":10620,"type":"SCALAR"}],"materials":[{"pbrMetallicRoughness":{"baseColorFactor":[0.486274511,0.0705882385,0.0705882385,1],"metallicFactor":0},"doubleSided":true},{"pbrMetallicRoughness":{"baseColorFactor":[0.0705882385,0.0705882385,0.0705882385,1],"metallicFactor":0},"doubleSided":true},{"pbrMetallicRoughness":{"baseColorFactor":[0.109803922,0.109803922,0.109803922,1],"metallicFactor":0},"doubleSided":true}],"meshes":[{"primitives":[{"attributes":{"POSITION":0,"NORMAL":1},"mode":4,"indices":2,"material":0},{"attributes":{"POSITION":3,"NORMAL":4},"mode":4,"indices":5,"material":1},{"attributes":{"POSITION":6,"NORMAL":7},"mode":4,"indices":8,"material":2}]},{"primitives":[{"attributes":{"POSITION":9,"NORMAL":10},"mode":4,"indices":11,"material":2}]}],"nodes":[{"mesh":0},{"mesh":1},{"name":"Extruder_BigCoolingFan_Case","children":[0]},{"name":"Extruder_BigCoolingFan_Blade","children":[1]}],"scenes":[{"nodes":[2,3]}]}