{"buffers":[{"uri":"petiteCloche.bin","byteLength":46392}],"asset":{"version":"2.0","generator":"gltfpack 0.16"},"bufferViews":[{"buffer":0,"byteOffset":0,"byteLength":15852,"byteStride":12,"target":34962},{"buffer":0,"byteOffset":15852,"byteLength":15852,"byteStride":12,"target":34962},{"buffer":0,"byteOffset":31704,"byteLength":14688,"target":34963}],"accessors":[{"bufferView":0,"byteOffset":0,"componentType":5126,"count":1321,"type":"VEC3","min":[-4.53637981,8.44999981,-4.49074984],"max":[4.45898008,23.4500008,4.5]},{"bufferView":1,"byteOffset":0,"componentType":5126,"count":1321,"type":"VEC3"},{"bufferView":2,"byteOffset":0,"componentType":5123,"count":7344,"type":"SCALAR"}],"materials":[{"pbrMetallicRoughness":{"baseColorFactor":[0.964705884,0.964705884,0.952941179,1],"metallicFactor":0},"doubleSided":true}],"meshes":[{"primitives":[{"attributes":{"POSITION":0,"NORMAL":1},"mode":4,"indices":2,"material":0}]}],"nodes":[{"mesh":0},{"name":"petite cloche v3","children":[0]}],"scenes":[{"nodes":[1]}]}