{"buffers":[{"uri":"rad.bin","byteLength":409320}],"asset":{"version":"2.0","generator":"gltfpack 0.16"},"bufferViews":[{"buffer":0,"byteOffset":0,"byteLength":164736,"byteStride":12,"target":34962},{"buffer":0,"byteOffset":164736,"byteLength":164736,"byteStride":12,"target":34962},{"buffer":0,"byteOffset":329472,"byteLength":79848,"target":34963}],"accessors":[{"bufferView":0,"byteOffset":0,"componentType":5126,"count":13728,"type":"VEC3","min":[-3.4995501,0,-3.4995501],"max":[3.4995501,2.5,3.4995501]},{"bufferView":1,"byteOffset":0,"componentType":5126,"count":13728,"type":"VEC3"},{"bufferView":2,"byteOffset":0,"componentType":5123,"count":39924,"type":"SCALAR"}],"materials":[{"pbrMetallicRoughness":{"baseColorFactor":[0.627451003,0.627451003,0.627451003,1],"metallicFactor":0},"doubleSided":true}],"meshes":[{"primitives":[{"attributes":{"POSITION":0,"NORMAL":1},"mode":4,"indices":2,"material":0}]}],"nodes":[{"mesh":0},{"name":"CPU Heat Sink","children":[0]}],"scenes":[{"nodes":[1]}]}