{"buffers":[{"uri":"top.bin","byteLength":47640}],"asset":{"version":"2.0","generator":"gltfpack 0.16"},"bufferViews":[{"buffer":0,"byteOffset":0,"byteLength":17808,"byteStride":12,"target":34962},{"buffer":0,"byteOffset":17808,"byteLength":17808,"byteStride":12,"target":34962},{"buffer":0,"byteOffset":35616,"byteLength":12024,"target":34963}],"accessors":[{"bufferView":0,"byteOffset":0,"componentType":5126,"count":1484,"type":"VEC3","min":[-7.59998989,8.71568584,-7.59998989],"max":[7.59998989,9.94625568,7.59998989]},{"bufferView":1,"byteOffset":0,"componentType":5126,"count":1484,"type":"VEC3"},{"bufferView":2,"byteOffset":0,"componentType":5123,"count":6012,"type":"SCALAR"}],"materials":[{"pbrMetallicRoughness":{"baseColorFactor":[0.627451003,0.627451003,0.627451003,1],"metallicFactor":0},"doubleSided":true}],"meshes":[{"primitives":[{"attributes":{"POSITION":0,"NORMAL":1},"mode":4,"indices":2,"material":0}]}],"nodes":[{"mesh":0},{"name":"top v3","children":[0]}],"scenes":[{"nodes":[1]}]}