{"buffers":[{"uri":"V1.bin","byteLength":202524}],"asset":{"version":"2.0","generator":"gltfpack 0.16"},"bufferViews":[{"buffer":0,"byteOffset":0,"byteLength":74448,"byteStride":12,"target":34962},{"buffer":0,"byteOffset":74448,"byteLength":74448,"byteStride":12,"target":34962},{"buffer":0,"byteOffset":148896,"byteLength":53628,"target":34963}],"accessors":[{"bufferView":0,"byteOffset":0,"componentType":5126,"count":890,"type":"VEC3","min":[-3.97447324,3.85998988,-6.31357002],"max":[-3.02777743,4.69208002,-4.54556227]},{"bufferView":1,"byteOffset":0,"componentType":5126,"count":890,"type":"VEC3"},{"bufferView":2,"byteOffset":0,"componentType":5123,"count":5145,"type":"SCALAR"},{"bufferView":0,"byteOffset":10680,"componentType":5126,"count":852,"type":"VEC3","min":[-4.01724625,3.7593801,-6.26752329],"max":[-3.07422733,4.59146023,-4.49937439]},{"bufferView":1,"byteOffset":10680,"componentType":5126,"count":852,"type":"VEC3"},{"bufferView":2,"byteOffset":10290,"componentType":5123,"count":4935,"type":"SCALAR"},{"bufferView":0,"byteOffset":20904,"componentType":5126,"count":2116,"type":"VEC3","min":[-6.45857477,3,-6.41076899],"max":[-2.85232997,7,-2.80452418]},{"bufferView":1,"byteOffset":20904,"componentType":5126,"count":2116,"type":"VEC3"},{"bufferView":2,"byteOffset":20160,"componentType":5123,"count":6114,"type":"SCALAR"},{"bufferView":0,"byteOffset":46296,"componentType":5126,"count":2346,"type":"VEC3","min":[-6.26548433,3.19996452,-6.15618658],"max":[-3.33208871,6.79982519,-3.24354649]},{"bufferView":1,"byteOffset":46296,"componentType":5126,"count":2346,"type":"VEC3"},{"bufferView":2,"byteOffset":32388,"componentType":5123,"count":10620,"type":"SCALAR"}],"materials":[{"pbrMetallicRoughness":{"baseColorFactor":[0.486274511,0.0705882385,0.0705882385,1],"metallicFactor":0},"doubleSided":true},{"pbrMetallicRoughness":{"baseColorFactor":[0.0705882385,0.0705882385,0.0705882385,1],"metallicFactor":0},"doubleSided":true},{"pbrMetallicRoughness":{"baseColorFactor":[0.109803922,0.109803922,0.109803922,1],"metallicFactor":0},"doubleSided":true}],"meshes":[{"primitives":[{"attributes":{"POSITION":0,"NORMAL":1},"mode":4,"indices":2,"material":0},{"attributes":{"POSITION":3,"NORMAL":4},"mode":4,"indices":5,"material":1},{"attributes":{"POSITION":6,"NORMAL":7},"mode":4,"indices":8,"material":2}]},{"primitives":[{"attributes":{"POSITION":9,"NORMAL":10},"mode":4,"indices":11,"material":2}]}],"nodes":[{"mesh":0},{"mesh":1},{"name":"Extruder_BigCoolingFan_Case","children":[0]},{"name":"Extruder_BigCoolingFan_Blade","children":[1]}],"scenes":[{"nodes":[2,3]}]}