{"buffers":[{"uri":"BaseV2.bin","byteLength":6412272}],"asset":{"version":"2.0","generator":"gltfpack 0.16"},"bufferViews":[{"buffer":0,"byteOffset":0,"byteLength":1831896,"byteStride":12,"target":34962},{"buffer":0,"byteOffset":1831896,"byteLength":1831896,"byteStride":12,"target":34962},{"buffer":0,"byteOffset":3663792,"byteLength":2687592,"target":34963},{"buffer":0,"byteOffset":6351384,"byteLength":60888,"target":34963}],"accessors":[{"bufferView":0,"byteOffset":0,"componentType":5126,"count":66589,"type":"VEC3","min":[-7.6035099,0,-7.60121012],"max":[7.60380983,7,7.60129976]},{"bufferView":1,"byteOffset":0,"componentType":5126,"count":66589,"type":"VEC3"},{"bufferView":2,"byteOffset":0,"componentType":5125,"count":304644,"type":"SCALAR"},{"bufferView":0,"byteOffset":799068,"componentType":5126,"count":3256,"type":"VEC3","min":[-7.59998989,7,-7.59998989],"max":[7.59998989,8.75,7.59998989]},{"bufferView":1,"byteOffset":799068,"componentType":5126,"count":3256,"type":"VEC3"},{"bufferView":3,"byteOffset":0,"componentType":5123,"count":9900,"type":"SCALAR"},{"bufferView":0,"byteOffset":838140,"componentType":5126,"count":1484,"type":"VEC3","min":[-7.59998989,8.71568584,-7.59998989],"max":[7.59998989,9.94625568,7.59998989]},{"bufferView":1,"byteOffset":838140,"componentType":5126,"count":1484,"type":"VEC3"},{"bufferView":3,"byteOffset":19800,"componentType":5123,"count":6012,"type":"SCALAR"},{"bufferView":0,"byteOffset":855948,"componentType":5126,"count":78715,"type":"VEC3","min":[-7.60064983,-3.20000005,-7.60223007],"max":[7.60141993,2.66453526e-15,7.59998989]},{"bufferView":1,"byteOffset":855948,"componentType":5126,"count":78715,"type":"VEC3"},{"bufferView":2,"byteOffset":1218576,"componentType":5125,"count":367254,"type":"SCALAR"},{"bufferView":0,"byteOffset":1800528,"componentType":5126,"count":1293,"type":"VEC3","min":[-5.00890017,8.44999981,-4.98883009],"max":[4.98549986,26.4500008,5]},{"bufferView":1,"byteOffset":1800528,"componentType":5126,"count":1293,"type":"VEC3"},{"bufferView":3,"byteOffset":31824,"componentType":5123,"count":7188,"type":"SCALAR"},{"bufferView":0,"byteOffset":1816044,"componentType":5126,"count":1321,"type":"VEC3","min":[-4.53637981,8.44999981,-4.49074984],"max":[4.45898008,23.4500008,4.5]},{"bufferView":1,"byteOffset":1816044,"componentType":5126,"count":1321,"type":"VEC3"},{"bufferView":3,"byteOffset":46200,"componentType":5123,"count":7344,"type":"SCALAR"}],"materials":[{"pbrMetallicRoughness":{"baseColorFactor":[0.627451003,0.627451003,0.627451003,1],"metallicFactor":0},"doubleSided":true},{"pbrMetallicRoughness":{"baseColorFactor":[0.964705884,0.964705884,0.952941179,1],"metallicFactor":0},"doubleSided":true}],"meshes":[{"primitives":[{"attributes":{"POSITION":0,"NORMAL":1},"mode":4,"indices":2,"material":0}]},{"primitives":[{"attributes":{"POSITION":3,"NORMAL":4},"mode":4,"indices":5,"material":0}]},{"primitives":[{"attributes":{"POSITION":6,"NORMAL":7},"mode":4,"indices":8,"material":0}]},{"primitives":[{"attributes":{"POSITION":9,"NORMAL":10},"mode":4,"indices":11,"material":0}]},{"primitives":[{"attributes":{"POSITION":12,"NORMAL":13},"mode":4,"indices":14,"material":1}]},{"primitives":[{"attributes":{"POSITION":15,"NORMAL":16},"mode":4,"indices":17,"material":1}]}],"nodes":[{"mesh":0},{"mesh":1},{"mesh":2},{"mesh":3},{"mesh":4},{"mesh":5},{"children":[0]},{"name":"silcRing v3","children":[1]},{"name":"top v3","children":[2]},{"name":"support v4","children":[3]},{"name":"grande cloche v2","children":[4]},{"name":"petite cloche v3","children":[5]}],"scenes":[{"nodes":[6,7,8,9,10,11]}]}